<svg xmlns="http://www.w3.org/2000/svg" viewBox="0 0 200 30">
    <path class="cls-1 fill-white w-full h-full"
        d="M48.46 23.11a1.43 1.43 0 0 1-2.85 0v-7.35a6.29 6.29 0 0 1 6.55-6.64 6.06 6.06 0 0 1 3.76 1.3 1.38 1.38 0 0 1 .54 1.07 1.32 1.32 0 0 1-1.25 1.3 1.55 1.55 0 0 1-.92-.29 3.81 3.81 0 0 0-2.29-.89 3.53 3.53 0 0 0-3.55 3.73ZM60.05 18a4.84 4.84 0 0 0 5 4.12A7.48 7.48 0 0 0 68.79 21a1.54 1.54 0 0 1 .71-.18A1.19 1.19 0 0 1 70.72 22a1.34 1.34 0 0 1-.63 1.13 9.91 9.91 0 0 1-5 1.36 7.62 7.62 0 0 1-7.82-7.74 7.7 7.7 0 0 1 7.68-7.67 7.26 7.26 0 0 1 7.29 7.05A1.79 1.79 0 0 1 70.57 18Zm0-2.28h9.63a5 5 0 0 0-4.74-4.21 4.86 4.86 0 0 0-4.89 4.19Zm27.35.81a4.69 4.69 0 1 0-9.36 0v6.58a1.43 1.43 0 0 1-2.85 0v-6.38a7.53 7.53 0 1 1 15.06 0v6.38a1.49 1.49 0 0 1-1.45 1.42 1.44 1.44 0 0 1-1.4-1.42Zm12.69 7.7h-1.48a3.71 3.71 0 0 1-3.74-3.7v-8.6h-1.15a1.24 1.24 0 0 1-1.25-1.27 1.28 1.28 0 0 1 1.25-1.25h1.15V6.86a1.44 1.44 0 0 1 2.88 0v2.55h2.72a1.26 1.26 0 0 1 1.28 1.25 1.28 1.28 0 0 1-1.28 1.27h-2.72v8.6a1.2 1.2 0 0 0 1.18 1.18h1.16a1.27 1.27 0 0 1 1.27 1.29 1.23 1.23 0 0 1-1.27 1.23ZM118 23.11a1.42 1.42 0 0 1-2.84 0v-.77a6.47 6.47 0 0 1-5 2.19 7.53 7.53 0 0 1-7.32-7.74 7.51 7.51 0 0 1 7.32-7.67 6.44 6.44 0 0 1 5 2.19v-.77a1.46 1.46 0 0 1 1.42-1.42 1.42 1.42 0 0 1 1.42 1.42Zm-2.64-6.52a4.78 4.78 0 0 0-4.83-5 5.08 5.08 0 0 0-5 5.21 5.12 5.12 0 0 0 5 5.31 4.85 4.85 0 0 0 4.83-5.16Zm10.1 6.52a1.42 1.42 0 0 1-2.84 0V6.89a1.42 1.42 0 1 1 2.84 0Zm17.54.35a.89.89 0 0 1-.86.92.91.91 0 0 1-.89-.92v-7.82a4.81 4.81 0 0 0-4.8-4.92 4.89 4.89 0 0 0-4.77 5.07v7.67a.88.88 0 1 1-1.75 0V15.9a6.48 6.48 0 0 1 6.55-6.64 6.4 6.4 0 0 1 5.63 3.32 6.53 6.53 0 0 1 12.19 3.32v7.56a.88.88 0 1 1-1.75 0v-7.67a4.89 4.89 0 0 0-4.77-5.07 4.8 4.8 0 0 0-4.8 4.92Zm16.46-5.9a5.76 5.76 0 0 0 5.69 5.4 8.2 8.2 0 0 0 4.45-1.22.93.93 0 0 1 .47-.15.73.73 0 0 1 .71.72.78.78 0 0 1-.38.65 9.37 9.37 0 0 1-5.25 1.42 7.31 7.31 0 0 1-7.44-7.59 7.41 7.41 0 0 1 7.47-7.53 7.14 7.14 0 0 1 7.2 6.85 1.42 1.42 0 0 1-1.38 1.45Zm0-1.42h11.35a5.65 5.65 0 0 0-5.63-5.45 5.78 5.78 0 0 0-5.72 5.45Zm30.05 7.32a.86.86 0 1 1-1.72 0v-2.1a6.67 6.67 0 0 1-5.72 3 7.36 7.36 0 0 1-7.32-7.59 7.37 7.37 0 0 1 7.32-7.53 6.55 6.55 0 0 1 5.72 3V6.36a.86.86 0 1 1 1.72 0Zm-1.66-6.67a5.75 5.75 0 0 0-5.72-6.1 5.87 5.87 0 0 0-5.66 6.1c0 3.32 2.37 6.2 5.66 6.2s5.72-2.58 5.72-6.2ZM36.42 8.12c0-4.39-3-7.29-6.91-7.29A6.75 6.75 0 0 0 24 3.67a6.91 6.91 0 0 0-12.48 4.45v14.12a4.12 4.12 0 1 1-8.21 0V7.05A3.53 3.53 0 0 1 6.9 3.32a3.81 3.81 0 0 1 2.28.89 1.48 1.48 0 0 0 .92.29 1.32 1.32 0 0 0 1.25-1.3 1.38 1.38 0 0 0-.54-1.07A6.06 6.06 0 0 0 7.05.83 6.29 6.29 0 0 0 .5 7.47v14.41c0 4.39 3 7.29 6.91 7.29a6.75 6.75 0 0 0 5.51-2.84 6.91 6.91 0 0 0 12.48-4.45V7.76a4.12 4.12 0 1 1 8.21 0v15.19A3.54 3.54 0 0 1 30 26.68a3.81 3.81 0 0 1-2.28-.89 1.48 1.48 0 0 0-.92-.29 1.33 1.33 0 0 0-1.25 1.3 1.38 1.38 0 0 0 .54 1.07 6.06 6.06 0 0 0 3.76 1.3 6.29 6.29 0 0 0 6.55-6.64ZM22.55 22.24a4.13 4.13 0 0 1-4.12 4.47c-2.25 0-4.09-1.69-4.09-4.47V7.76a4.13 4.13 0 0 1 4.12-4.47c2.25 0 4.09 1.69 4.09 4.47Zm173.68-9.68h-.76a3.56 3.56 0 0 1-3-2.6c0-.22-.08-.44-.12-.66v-.5l.06-.39a3.55 3.55 0 1 1 4.39 4.07c-.16.02-.37.04-.57.08ZM196 6a3 3 0 1 0 3 3 3 3 0 0 0-3-3Z" />
    <path class="cls-1"
        d="M194.91 9.12v1.93h-.33V6.92h1.48c.82 0 1.25.43 1.25 1.08a.93.93 0 0 1-.77 1c.42.1.7.38.7 1.08v.16a2.64 2.64 0 0 0 .06.84h-.3a3 3 0 0 1-.06-.86v-.11c0-.68-.2-1-1-1Zm0-.3h1c.72 0 1.06-.27 1.06-.81s-.33-.8-1-.8h-1.08Z" />
</svg>